<mxfile host="Electron" agent="Mozilla/5.0 (Windows NT 10.0; Win64; x64) AppleWebKit/537.36 (KHTML, like Gecko) draw.io/28.1.2 Chrome/138.0.7204.243 Electron/37.4.0 Safari/537.36" version="28.1.2">
  <diagram name="Page-1" id="2KN4n-oY-idVr_XuJjIR">
    <mxGraphModel dx="548" dy="329" grid="1" gridSize="10" guides="1" tooltips="1" connect="1" arrows="1" fold="1" page="1" pageScale="1" pageWidth="850" pageHeight="1100" math="0" shadow="0">
      <root>
        <mxCell id="0" />
        <mxCell id="1" parent="0" />
        <mxCell id="TGLitazUsg_yzprh3FVX-1" value="Motor" style="rounded=0;whiteSpace=wrap;html=1;" vertex="1" parent="1">
          <mxGeometry x="440" y="240" width="120" height="60" as="geometry" />
        </mxCell>
        <mxCell id="TGLitazUsg_yzprh3FVX-2" value="Voltage generator" style="rounded=0;whiteSpace=wrap;html=1;" vertex="1" parent="1">
          <mxGeometry x="440" y="90" width="170" height="60" as="geometry" />
        </mxCell>
        <mxCell id="TGLitazUsg_yzprh3FVX-3" value="" style="endArrow=none;html=1;rounded=0;exitX=0.25;exitY=0;exitDx=0;exitDy=0;entryX=0.5;entryY=1;entryDx=0;entryDy=0;" edge="1" parent="1" source="TGLitazUsg_yzprh3FVX-1" target="TGLitazUsg_yzprh3FVX-5">
          <mxGeometry width="50" height="50" relative="1" as="geometry">
            <mxPoint x="400" y="200" as="sourcePoint" />
            <mxPoint x="450" y="150" as="targetPoint" />
          </mxGeometry>
        </mxCell>
        <mxCell id="TGLitazUsg_yzprh3FVX-5" value="&lt;font style=&quot;font-size: 8px;&quot;&gt;Maks 12 V&lt;/font&gt;" style="text;html=1;align=center;verticalAlign=middle;whiteSpace=wrap;rounded=0;" vertex="1" parent="1">
          <mxGeometry x="450" y="130" width="40" height="20" as="geometry" />
        </mxCell>
        <mxCell id="TGLitazUsg_yzprh3FVX-8" value="&lt;font style=&quot;font-size: 8px;&quot;&gt;GND&lt;/font&gt;" style="text;html=1;align=center;verticalAlign=middle;whiteSpace=wrap;rounded=0;" vertex="1" parent="1">
          <mxGeometry x="510" y="130" width="30" height="20" as="geometry" />
        </mxCell>
        <mxCell id="TGLitazUsg_yzprh3FVX-9" value="" style="endArrow=none;html=1;rounded=0;entryX=0.75;entryY=1;entryDx=0;entryDy=0;exitX=0.75;exitY=0;exitDx=0;exitDy=0;" edge="1" parent="1" source="TGLitazUsg_yzprh3FVX-1" target="TGLitazUsg_yzprh3FVX-8">
          <mxGeometry width="50" height="50" relative="1" as="geometry">
            <mxPoint x="640" y="220" as="sourcePoint" />
            <mxPoint x="690" y="170" as="targetPoint" />
          </mxGeometry>
        </mxCell>
        <mxCell id="TGLitazUsg_yzprh3FVX-11" value="Hall" style="rounded=0;whiteSpace=wrap;html=1;" vertex="1" parent="1">
          <mxGeometry x="560" y="240" width="100" height="60" as="geometry" />
        </mxCell>
        <mxCell id="TGLitazUsg_yzprh3FVX-12" value="&lt;font style=&quot;font-size: 8px;&quot;&gt;Grøn&lt;/font&gt;" style="text;html=1;align=center;verticalAlign=middle;whiteSpace=wrap;rounded=0;" vertex="1" parent="1">
          <mxGeometry x="570" y="240" width="30" height="20" as="geometry" />
        </mxCell>
        <mxCell id="TGLitazUsg_yzprh3FVX-13" value="&lt;font style=&quot;font-size: 8px;&quot;&gt;Rød&lt;/font&gt;" style="text;html=1;align=center;verticalAlign=middle;whiteSpace=wrap;rounded=0;" vertex="1" parent="1">
          <mxGeometry x="460" y="240" width="30" height="20" as="geometry" />
        </mxCell>
        <mxCell id="TGLitazUsg_yzprh3FVX-14" value="" style="endArrow=none;html=1;rounded=0;exitX=0.25;exitY=0;exitDx=0;exitDy=0;" edge="1" parent="1" source="TGLitazUsg_yzprh3FVX-11">
          <mxGeometry width="50" height="50" relative="1" as="geometry">
            <mxPoint x="610" y="170" as="sourcePoint" />
            <mxPoint x="530" y="200" as="targetPoint" />
            <Array as="points">
              <mxPoint x="585" y="200" />
            </Array>
          </mxGeometry>
        </mxCell>
        <mxCell id="TGLitazUsg_yzprh3FVX-15" value="&lt;font style=&quot;font-size: 8px;&quot;&gt;Sort&lt;/font&gt;" style="text;html=1;align=center;verticalAlign=middle;whiteSpace=wrap;rounded=0;" vertex="1" parent="1">
          <mxGeometry x="510" y="240" width="30" height="20" as="geometry" />
        </mxCell>
        <mxCell id="TGLitazUsg_yzprh3FVX-16" value="&lt;font style=&quot;font-size: 8px;&quot;&gt;Brune&lt;/font&gt;" style="text;html=1;align=center;verticalAlign=middle;whiteSpace=wrap;rounded=0;" vertex="1" parent="1">
          <mxGeometry x="595" y="240" width="30" height="20" as="geometry" />
        </mxCell>
        <mxCell id="TGLitazUsg_yzprh3FVX-17" value="&lt;font style=&quot;font-size: 8px;&quot;&gt;3.5V til 24 V&lt;/font&gt;" style="text;html=1;align=center;verticalAlign=middle;whiteSpace=wrap;rounded=0;" vertex="1" parent="1">
          <mxGeometry x="550" y="130" width="50" height="20" as="geometry" />
        </mxCell>
        <mxCell id="TGLitazUsg_yzprh3FVX-19" value="" style="endArrow=none;html=1;rounded=0;entryX=0.5;entryY=1;entryDx=0;entryDy=0;" edge="1" parent="1" target="TGLitazUsg_yzprh3FVX-17">
          <mxGeometry width="50" height="50" relative="1" as="geometry">
            <mxPoint x="610" y="240" as="sourcePoint" />
            <mxPoint x="660" y="190" as="targetPoint" />
            <Array as="points">
              <mxPoint x="610" y="180" />
              <mxPoint x="575" y="180" />
            </Array>
          </mxGeometry>
        </mxCell>
        <mxCell id="TGLitazUsg_yzprh3FVX-20" value="&lt;span style=&quot;font-size: 8px;&quot;&gt;Blå&lt;/span&gt;" style="text;html=1;align=center;verticalAlign=middle;whiteSpace=wrap;rounded=0;" vertex="1" parent="1">
          <mxGeometry x="630" y="240" width="30" height="20" as="geometry" />
        </mxCell>
        <mxCell id="TGLitazUsg_yzprh3FVX-21" value="" style="endArrow=none;html=1;rounded=0;exitX=0.653;exitY=0.05;exitDx=0;exitDy=0;exitPerimeter=0;entryX=1;entryY=0.5;entryDx=0;entryDy=0;entryPerimeter=0;" edge="1" parent="1" source="TGLitazUsg_yzprh3FVX-20" target="TGLitazUsg_yzprh3FVX-22">
          <mxGeometry width="50" height="50" relative="1" as="geometry">
            <mxPoint x="640" y="240" as="sourcePoint" />
            <mxPoint x="650" y="200" as="targetPoint" />
            <Array as="points">
              <mxPoint x="650" y="210" />
              <mxPoint x="670" y="210" />
            </Array>
          </mxGeometry>
        </mxCell>
        <mxCell id="TGLitazUsg_yzprh3FVX-22" value="R" style="pointerEvents=1;verticalLabelPosition=bottom;shadow=0;dashed=0;align=center;html=1;verticalAlign=top;shape=mxgraph.electrical.resistors.resistor_1;" vertex="1" parent="1">
          <mxGeometry x="610" y="180" width="60" height="10" as="geometry" />
        </mxCell>
        <mxCell id="TGLitazUsg_yzprh3FVX-23" value="Osciliscope" style="rounded=0;whiteSpace=wrap;html=1;" vertex="1" parent="1">
          <mxGeometry x="670" y="90" width="65" height="60" as="geometry" />
        </mxCell>
        <mxCell id="TGLitazUsg_yzprh3FVX-24" value="" style="endArrow=none;html=1;rounded=0;entryX=0.5;entryY=1;entryDx=0;entryDy=0;exitX=1;exitY=0.5;exitDx=0;exitDy=0;exitPerimeter=0;" edge="1" parent="1" source="TGLitazUsg_yzprh3FVX-22" target="TGLitazUsg_yzprh3FVX-23">
          <mxGeometry width="50" height="50" relative="1" as="geometry">
            <mxPoint x="710" y="200" as="sourcePoint" />
            <mxPoint x="760" y="150" as="targetPoint" />
            <Array as="points">
              <mxPoint x="700" y="185" />
            </Array>
          </mxGeometry>
        </mxCell>
        <mxCell id="TGLitazUsg_yzprh3FVX-25" value="&lt;span style=&quot;font-size: 8px;&quot;&gt;Port 1&lt;/span&gt;" style="text;html=1;align=center;verticalAlign=middle;whiteSpace=wrap;rounded=0;" vertex="1" parent="1">
          <mxGeometry x="687.5" y="130" width="30" height="20" as="geometry" />
        </mxCell>
      </root>
    </mxGraphModel>
  </diagram>
</mxfile>
